# xmcd CD database file
#
# Track frame offsets:
#	150
#	3932
#	15330
#	34105
#	45447
#	70322
#	92070
#	104145
#	125142
#	139127
#	154235
#
# Disc length: 2293 seconds
#
# Revision: 3
# Processed by: cddbd v1.5.1PL2 Copyright (c) Steve Scherf et al.
# Submitted via: CDex 1.50
#
DISCID=8f08f30b
DTITLE=Fairfield Four - Standing In The Safety Zone
DYEAR=1992
DGENRE=Gospel
TTITLE0=Tree Of Level
TTITLE1=My God Called Me This Morning
TTITLE2=Children, Go Where I Send Thee
TTITLE3=Born Again
TTITLE4=Keep Me Near The Cross (Servant's Prayer)
TTITLE5=Roll, Jordan, Roll
TTITLE6=Standing In The Safety Zone
TTITLE7=Swing Low, Sweet Chariot
TTITLE8=Last Month Of The Year
TTITLE9=How I Got Over
TTITLE10=Dig A Little Deeper
EXTD=Isaac Freeman: Bass and Musical Director\nJames Hill: Baritone and Group Manager\nW.L. Richardson: Lead and Chaplain\nWalter Settles: Utility Lead\nWilson Waters: Tenor and Treasurer\n YEAR: 1992
EXTT0=Isaac Freeman: Lead Vocal, Bass\nSamuel H. McCrary: Tenor\nJames Hill: Baritone\nEdward Thomas: Second Tenor\n
EXTT1=Walter Settles: Lead Vocal\n
EXTT2=W.L. Richardson: Lead Vocal\n
EXTT3=Walter Settles: Lead Vocal\n
EXTT4=Walter Settles: Lead Vocal\n
EXTT5=Alan O'Bryant, Isaac Freeman: Lead Vocals\n
EXTT6=Walter Settles: Lead Vocal\n
EXTT7=W.L. Richardson: Lead Vocal\n
EXTT8=Alan O'Bryant, W.L. Richardson, Walter Settles: Lead Vocals\n
EXTT9=Walter Settles: Lead Vocal\n
EXTT10=W.L. Richardson: Lead Vocal\n
PLAYORDER=
